<svg xmlns="http://www.w3.org/2000/svg" width="186.286" height="174.049" viewBox="0 0 186.286 174.049">
  <g id="outline" transform="translate(-15 -31)">
    <path id="Path_493" data-name="Path 493" d="M141.928,32A58.369,58.369,0,0,0,83.893,96.488L33.277,96.5A17.3,17.3,0,0,0,16,113.777v57.589a17.3,17.3,0,0,0,17.277,17.277h3.239l20.7,14.785a3.071,3.071,0,0,0,4.856-2.5V188.643h53.366a17.3,17.3,0,0,0,17.277-17.277V147.985a58.566,58.566,0,0,0,9.214.729c1.016,0,2.042-.027,3.071-.082v9.3a3.071,3.071,0,0,0,5.112,2.3l23.355-20.76A58.361,58.361,0,0,0,141.928,32ZM126.571,171.366A11.147,11.147,0,0,1,115.437,182.5H59a3.071,3.071,0,0,0-3.071,3.071v9.389L39.285,183.072A3.071,3.071,0,0,0,37.5,182.5H33.277a11.147,11.147,0,0,1-11.134-11.134V113.777a11.147,11.147,0,0,1,11.134-11.134h51.6a58.556,58.556,0,0,0,41.695,44.017Zm43.384-36.948a3.116,3.116,0,0,0-.389.294l-18.423,16.377V145.3a3.071,3.071,0,0,0-3.071-3.071,3.121,3.121,0,0,0-.337.018,53.054,53.054,0,0,1-5.805.323,52.2,52.2,0,1,1,28.027-8.153Z" fill="#cca163" stroke="#fff" stroke-width="2"/>
    <path id="Path_494" data-name="Path 494" d="M305.728,90.525A24.571,24.571,0,0,0,280,115.07a3.071,3.071,0,1,0,6.143,0,18.429,18.429,0,1,1,26.3,16.667A19.418,19.418,0,0,0,301.5,149.281v.727a3.071,3.071,0,0,0,6.143,0v-.727a13.25,13.25,0,0,1,7.432-11.992,24.575,24.575,0,0,0-9.346-46.764Z" transform="translate(-162.643 -36.039)" fill="#cca163" stroke="#fff" stroke-width="2"/>
    <circle id="Ellipse_8" data-name="Ellipse 8" cx="4.5" cy="4.5" r="4.5" transform="translate(137.143 122)" fill="#cca163" stroke="#fff" stroke-width="2"/>
    <circle id="Ellipse_9" data-name="Ellipse 9" cx="6.143" cy="6.143" r="6.143" transform="translate(49.786 131.041)" fill="#cca163" stroke="#fff" stroke-width="2"/>
    <circle id="Ellipse_10" data-name="Ellipse 10" cx="6.143" cy="6.143" r="6.143" transform="translate(80.5 131.041)" fill="#cca163" stroke="#fff" stroke-width="2"/>
    <path id="Path_495" data-name="Path 495" d="M143.865,346.641a21.393,21.393,0,0,1-26.875,0,3.072,3.072,0,0,0-3.839,4.8,27.656,27.656,0,0,0,34.554,0,3.072,3.072,0,1,0-3.839-4.8Z" transform="translate(-59.142 -193.426)" fill="#cca163" stroke="#fff" stroke-width="2"/>
  </g>
</svg>
