<svg xmlns="http://www.w3.org/2000/svg" width="95.367" height="89.5" viewBox="0 0 95.367 89.5">
  <g id="people" transform="translate(0.75 -15.25)">
    <path id="Path_489" data-name="Path 489" d="M218,27a11,11,0,1,0-11,11A11.012,11.012,0,0,0,218,27Zm-11,7.333A7.333,7.333,0,1,1,214.333,27,7.342,7.342,0,0,1,207,34.333Z" transform="translate(-160.067)" fill="#cca163" stroke="#fff" stroke-width="1.5"/>
    <path id="Path_490" data-name="Path 490" d="M199,159.833V152.5a16.5,16.5,0,1,0-33,0v7.333a1.833,1.833,0,0,0,1.833,1.833h29.333A1.833,1.833,0,0,0,199,159.833ZM195.333,158H169.667v-5.5a12.833,12.833,0,1,1,25.667,0Z" transform="translate(-135.567 -98)" fill="#cca163" stroke="#fff" stroke-width="1.5"/>
    <path id="Path_491" data-name="Path 491" d="M13.174,169.554,22,173.966v9.867a1.833,1.833,0,0,0,1.833,1.833H43.267a1.833,1.833,0,0,0,1.833-1.833V160.51c0-5.827-4.3-10.854-9.788-11.444-.146-.028-7.086-.545-10.44-3.9l-5.02-5.019A7.284,7.284,0,0,0,14.667,138V123.333a7.333,7.333,0,0,0-14.667,0v24.9a23.835,23.835,0,0,0,13.174,21.317ZM3.667,123.333a3.667,3.667,0,0,1,7.333,0v15.65a7.332,7.332,0,0,0-1.518,11.535l9.388,9.39a1.833,1.833,0,0,0,2.593-2.593l-9.388-9.391a3.666,3.666,0,0,1,1.37-6.05h0a3.662,3.662,0,0,1,3.813.866l5.02,5.02c3.419,3.417,8.4,4.378,12.62,4.947l.021,0a7.7,7.7,0,0,1,6.514,7.8V182H25.667v-9.167a1.833,1.833,0,0,0-1.013-1.64l-9.839-4.919A20.058,20.058,0,0,1,3.667,148.237Z" transform="translate(0 -81.667)" fill="#cca163" stroke="#fff" stroke-width="1.5"/>
    <circle id="Ellipse_7" data-name="Ellipse 7" cx="2" cy="2" r="2" transform="translate(81.933 81)" fill="#cca163" stroke="#fff" stroke-width="1.5"/>
    <path id="Path_492" data-name="Path 492" d="M303.767,116a7.342,7.342,0,0,0-7.333,7.333V138a7.284,7.284,0,0,0-5.185,2.148l-5.019,5.019c-2.926,2.924-7.672,3.411-10.441,3.9-5.489.59-9.788,5.617-9.788,11.444v23.324a1.833,1.833,0,0,0,1.833,1.833h19.433a1.833,1.833,0,0,0,1.833-1.833v-9.867l6-3a1.833,1.833,0,0,0-1.64-3.28l-7.014,3.506a1.834,1.834,0,0,0-1.013,1.64V182H269.667V160.51a7.7,7.7,0,0,1,6.514-7.8l.021,0c4.283-.578,9.2-1.534,12.62-4.948l5.02-5.02a3.663,3.663,0,0,1,3.813-.866h0a3.667,3.667,0,0,1,1.37,6.05l-9.389,9.39a1.833,1.833,0,1,0,2.593,2.592l9.388-9.39a7.332,7.332,0,0,0-1.518-11.535v-15.65a3.667,3.667,0,0,1,7.333,0v24.9a20.221,20.221,0,0,1-2.448,9.63,1.833,1.833,0,1,0,3.221,1.751,23.9,23.9,0,0,0,2.893-11.382v-24.9A7.342,7.342,0,0,0,303.767,116Z" transform="translate(-217.233 -81.667)" fill="#cca163" stroke="#fff" stroke-width="1.5"/>
  </g>
</svg>
