<svg xmlns="http://www.w3.org/2000/svg" width="101.616" height="88.377" viewBox="0 0 101.616 88.377">
  <g id="shuffle_2_" transform="translate(0.501 -33.51)">
    <path id="Path_484" data-name="Path 484" d="M41.856,375.766H1.785a1.789,1.789,0,0,0,0,3.578H41.856a1.789,1.789,0,0,0,0-3.578Z" transform="translate(0 -274.565)" fill="#cca163" stroke="#fff" stroke-width="1"/>
    <path id="Path_485" data-name="Path 485" d="M83.49,152.637a1.824,1.824,0,0,0-2.527,0,1.782,1.782,0,0,0,0,2.527l13.415,13.421H59.559L30.377,118H1.8a1.789,1.789,0,1,0-.018,3.578H28.3l28.966,50.2.058-.031.219.417H94.377L80.963,185.582a1.787,1.787,0,0,0-.526,1.266,1.768,1.768,0,0,0,.524,1.26,1.832,1.832,0,0,0,2.528,0l16.465-16.469a1.8,1.8,0,0,0,0-2.533Z" transform="translate(0 -67.384)" fill="#cca163" stroke="#fff" stroke-width="1"/>
    <path id="Path_486" data-name="Path 486" d="M227.138,54.194H275.5L262.091,67.613a1.8,1.8,0,0,0,0,2.533,1.832,1.832,0,0,0,2.528,0L281.082,53.67a1.8,1.8,0,0,0,0-2.533L264.617,34.665a1.842,1.842,0,0,0-2.527,0,1.788,1.788,0,0,0,0,2.527L275.5,50.616H227.138a1.789,1.789,0,0,0,0,3.578Z" transform="translate(-181.127)" fill="#cca163" stroke="#fff" stroke-width="1"/>
  </g>
</svg>
