<svg xmlns="http://www.w3.org/2000/svg" xmlns:xlink="http://www.w3.org/1999/xlink" width="61.584" height="78.083" viewBox="0 0 61.584 78.083">
  <defs>
    <linearGradient id="linear-gradient" x1="0.015" y1="0.5" x2="0.617" y2="0.5" gradientUnits="objectBoundingBox">
      <stop offset="0" stop-color="#d6aa6e"/>
      <stop offset="1" stop-color="#db9633"/>
    </linearGradient>
  </defs>
  <g id="time_2_2_" transform="translate(-54.094)">
    <path id="Path_471" data-name="Path 471" d="M104.678,15.458l-.307-.26V3.655A3.658,3.658,0,0,0,100.718,0H69.054A3.659,3.659,0,0,0,65.4,3.655V15.2l-.307.26a30.785,30.785,0,0,0,0,47.169l.307.262V74.435a3.655,3.655,0,0,0,3.653,3.648h31.664a3.655,3.655,0,0,0,3.653-3.648V62.89l.307-.262a30.785,30.785,0,0,0,0-47.17ZM68.182,2.783H101.59V13.13l-1.308-.758a31.314,31.314,0,0,0-30.792,0l-1.308.758ZM101.59,75.307H68.182V64.96l1.308.758a31.358,31.358,0,0,0,30.79,0l1.311-.76V75.307Zm3.105-16.456a27.91,27.91,0,1,1,6-8.905A27.976,27.976,0,0,1,104.695,58.851Z" fill="url(#linear-gradient)"/>
    <path id="Path_472" data-name="Path 472" d="M264.646,155.577l-14.977-8.645V129.639a1.389,1.389,0,0,0-2.778,0v18.093a1.378,1.378,0,0,0,.7,1.2l15.668,9.048a1.43,1.43,0,0,0,1.9-.51,1.391,1.391,0,0,0-.508-1.9Z" transform="translate(-163.394 -108.691)" fill="url(#linear-gradient)"/>
  </g>
</svg>
