<svg xmlns="http://www.w3.org/2000/svg" width="118.521" height="60.153" viewBox="0 0 118.521 60.153">
  <g id="banknote_2_" transform="translate(1 -127.234)">
    <path id="Path_487" data-name="Path 487" d="M111.073,128.234H5.448A5.452,5.452,0,0,0,0,133.678v47.258a5.456,5.456,0,0,0,5.448,5.451H111.073a5.456,5.456,0,0,0,5.448-5.451V133.678A5.452,5.452,0,0,0,111.073,128.234Zm1.305,54H4.144V132.377H112.378Z" transform="translate(0 0)" fill="#cca163" stroke="#fff" stroke-width="2"/>
    <path id="Path_488" data-name="Path 488" d="M203.143,218.712a15.575,15.575,0,1,0-15.573-15.575A15.59,15.59,0,0,0,203.143,218.712Zm0-27a11.425,11.425,0,1,1-11.431,11.429A11.441,11.441,0,0,1,203.143,191.708Z" transform="translate(-144.883 -45.826)" fill="#cca163" stroke="#fff" stroke-width="2"/>
  </g>
</svg>
