<svg xmlns="http://www.w3.org/2000/svg" width="90.239" height="66" viewBox="0 0 90.239 66">
  <g id="Interface-web-tools-17" transform="translate(-2 -16)">
    <g id="Group_12" data-name="Group 12">
      <path id="Path_479" data-name="Path 479" d="M49,32c0,9.307-6.315,19-15,19S19,41.307,19,32s6.315-15,15-15S49,22.693,49,32Z" fill="none" stroke="#c49a5e" stroke-miterlimit="10" stroke-width="2"/>
      <path id="Path_480" data-name="Path 480" d="M65,74c0,5.008-14.224,7-31,7S3,79.008,3,74C3,59.092,17.224,54,34,54S65,59.092,65,74Z" fill="none" stroke="#c49a5e" stroke-miterlimit="10" stroke-width="2"/>
    </g>
    <path id="Path_481" data-name="Path 481" d="M79.247,30.243c0,6.976-4.733,14.242-11.243,14.242S56.76,37.22,56.76,30.243,61.493,19,68,19,79.247,23.267,79.247,30.243Z" fill="none" stroke="#c49a5e" stroke-miterlimit="10" stroke-width="2"/>
    <path id="Path_482" data-name="Path 482" d="M58.636,49.618A44.911,44.911,0,0,1,68,48.734c12.575,0,23.236,3.817,23.236,14.991,0,3.243-7.959,4.8-18.233,5.162" fill="none" stroke="#c49a5e" stroke-miterlimit="10" stroke-width="2"/>
  </g>
</svg>
